# xmcd CD database file
#
# Track frame offsets:
#	150
#	15886
#	32735
#	52366
#	69255
#	84745
#	104794
#	121121
#	138192
#	159011
#
# Disc length: 2313 seconds
#
# Revision: 0
# Processed by: cddbd v1.5.2PL0 Copyright (c) Steve Scherf et al.
# Submitted via: CDex 1.70beta2
#
DISCID=7909070a
DTITLE=Jsnice Maynard - There's A Better Way
DYEAR=2010
DGENRE=Country
TTITLE0=There's A Better Way
TTITLE1=I Wish I Could Convince My Heart
TTITLE2=The Unbeliever
TTITLE3=She's Got It Bad
TTITLE4=Baby I've Got You
TTITLE5=What More Could You Want
TTITLE6=I Wouldn't Go That Far
TTITLE7=Even If You Ask Me To
TTITLE8=Sometimes Love Just Goes That Way
TTITLE9=Gettin' Tired Of Losing You
EXTD=YEAR: 2010
EXTT0=
EXTT1=
EXTT2=
EXTT3=
EXTT4=
EXTT5=
EXTT6=
EXTT7=
EXTT8=
EXTT9=
PLAYORDER=
